<?xml version="1.0" standalone="no"?>
<!DOCTYPE svg PUBLIC "-//W3C//DTD SVG 20010904//EN"
 "http://www.w3.org/TR/2001/REC-SVG-20010904/DTD/svg10.dtd">
<svg version="1.0" xmlns="http://www.w3.org/2000/svg"
 width="191.000000pt" height="191.000000pt" viewBox="0 0 191.000000 191.000000"
 preserveAspectRatio="xMidYMid meet">

<g transform="translate(0.000000,191.000000) scale(0.100000,-0.100000)"
fill="#000000" stroke="none">
<path d="M974 1270 c-48 -5 -95 -19 -150 -45 -76 -37 -78 -38 -49 -45 29 -7
28 -8 -10 -9 -38 -1 -154 -23 -198 -37 -13 -4 -17 -2 -13 5 17 27 -92 1 -119
-29 -18 -19 -17 -20 4 -20 29 0 22 -24 -7 -28 -20 -3 -21 -9 -19 -65 2 -58 4
-62 28 -67 14 -3 38 -15 55 -27 l29 -22 -52 -1 c-33 0 -53 -4 -53 -12 0 -21
806 17 995 47 48 8 85 78 85 160 0 82 -19 105 -84 105 -24 0 -48 6 -55 14 -6
7 -42 27 -79 44 -77 36 -182 47 -308 32z m326 -100 c-8 -5 -22 -10 -30 -10
-13 0 -13 1 0 10 8 5 22 10 30 10 13 0 13 -1 0 -10z m-320 -21 c-107 -4 -206
-9 -220 -13 l-25 -7 25 12 c29 14 255 26 350 19 41 -3 -6 -7 -130 -11z m434
-23 c-18 -8 -37 -22 -43 -33 -6 -10 -11 -13 -11 -7 0 19 40 54 63 54 18 -1 17
-3 -9 -14z m-579 -42 c-56 -26 -128 -31 -172 -11 -25 11 -17 13 87 23 63 6
120 11 125 12 6 0 -12 -10 -40 -24z m280 5 c-99 -19 -125 -19 -125 0 0 11 56
17 160 18 l65 1 -100 -19z m318 -36 c-4 -27 -4 -27 11 -9 12 15 16 16 16 5 0
-8 -5 -20 -11 -26 -8 -8 -8 -17 0 -31 15 -29 14 -39 -3 -17 -13 18 -14 18 -20
-3 -4 -12 -12 -19 -18 -16 -6 4 -6 10 1 17 16 16 13 37 -4 37 -8 0 -15 5 -15
11 0 6 7 8 16 5 13 -5 15 -1 12 24 -3 19 0 30 7 30 8 0 11 -11 8 -27z m-462 0
c11 -15 11 -16 -1 -5 -21 18 -30 15 -30 -13 0 -28 3 -29 31 -15 15 8 19 7 19
-5 0 -8 -3 -15 -7 -15 -5 0 -14 -4 -22 -9 -10 -7 -11 -13 -1 -31 10 -18 14
-20 21 -9 5 8 9 9 9 3 0 -5 -6 -18 -14 -29 -12 -17 -13 -17 -20 8 -8 32 -21
35 -36 7 -9 -17 -7 -22 12 -30 13 -5 17 -9 9 -9 -8 -1 -22 6 -32 15 -16 14
-16 18 -4 31 21 20 19 41 -5 48 -11 3 -20 13 -20 21 0 11 4 12 19 4 28 -14 31
-13 31 15 0 28 -9 31 -30 13 -12 -11 -12 -10 -1 5 7 9 24 17 36 17 12 0 29 -8
36 -17z m-378 -30 c-18 -2 -48 -2 -65 0 -18 2 -4 4 32 4 36 0 50 -2 33 -4z
m84 -49 c-3 -3 -12 -4 -19 -1 -8 3 -5 6 6 6 11 1 17 -2 13 -5z m-54 -11 c-7
-2 -19 -2 -25 0 -7 3 -2 5 12 5 14 0 19 -2 13 -5z m-70 -10 c-7 -2 -19 -2 -25
0 -7 3 -2 5 12 5 14 0 19 -2 13 -5z m751 -25 c-27 -3 -89 -6 -139 -6 -81 0
-86 1 -45 9 84 18 204 25 219 14 11 -8 3 -12 -35 -17z m-487 -15 c-9 -8 -207
-20 -207 -11 0 3 6 9 13 11 18 8 201 8 194 0z"/>
<path d="M665 798 c14 -29 28 -54 33 -56 9 -3 54 99 47 106 -2 2 -14 -16 -26
-42 l-23 -46 -19 45 c-11 25 -23 45 -28 45 -4 0 3 -24 16 -52z"/>
<path d="M782 798 l3 -53 40 -1 c32 -1 34 -1 8 3 -43 6 -47 40 -5 46 l27 4
-27 2 c-21 1 -28 6 -28 20 0 15 8 21 33 24 27 3 26 4 -11 5 l-43 2 3 -52z"/>
<path d="M900 795 c0 -64 17 -75 22 -14 l3 41 30 -41 c17 -22 33 -41 38 -41 4
0 7 25 7 55 0 30 -4 55 -10 55 -5 0 -10 -17 -10 -37 l-1 -38 -32 38 c-18 20
-35 37 -39 37 -5 0 -8 -25 -8 -55z"/>
<path d="M1047 843 c19 -4 23 -12 26 -56 l3 -52 2 52 c2 45 5 52 25 56 12 2 0
4 -28 4 -27 0 -40 -2 -28 -4z"/>
<path d="M1153 824 c-15 -24 -15 -29 -2 -53 28 -49 109 -32 109 24 0 54 -77
75 -107 29z m77 2 c28 -35 -11 -93 -47 -70 -36 22 -23 84 17 84 10 0 23 -7 30
-14z"/>
<path d="M393 628 c-2 -22 -1 -22 12 -5 10 14 14 15 18 5 4 -8 6 -7 6 5 1 27
-34 22 -36 -5z"/>
<path d="M490 633 c0 -15 2 -16 10 -3 9 13 11 13 20 0 8 -13 10 -12 10 3 0 10
-8 17 -20 17 -12 0 -20 -7 -20 -17z"/>
<path d="M551 634 c0 -11 3 -14 6 -6 3 7 2 16 -1 19 -3 4 -6 -2 -5 -13z"/>
<path d="M593 628 c-2 -16 1 -18 10 -9 7 7 8 14 1 21 -6 6 -10 2 -11 -12z"/>
<path d="M668 643 c6 -2 10 -9 6 -14 -3 -5 0 -9 5 -9 6 0 11 7 11 15 0 8 -8
15 -17 14 -11 0 -13 -3 -5 -6z"/>
<path d="M713 635 c1 -12 10 -20 22 -20 12 0 21 8 23 20 3 16 1 17 -7 5 -10
-13 -11 -13 -11 0 0 12 -2 13 -9 1 -7 -11 -10 -11 -15 0 -3 8 -5 5 -3 -6z"/>
<path d="M810 637 c0 -7 9 -13 20 -14 11 -1 20 4 20 10 0 7 -9 13 -20 14 -11
1 -20 -4 -20 -10z"/>
<path d="M911 632 c-1 -19 4 -23 21 -20 14 2 24 11 25 23 2 11 0 14 -3 7 -3
-6 -10 -10 -15 -6 -5 3 -9 -1 -10 -8 0 -7 -4 -4 -9 7 -8 19 -9 19 -9 -3z"/>
<path d="M1050 643 c8 -3 18 -11 22 -17 5 -7 8 -4 8 7 0 11 -7 17 -22 16 -16
0 -18 -2 -8 -6z"/>
<path d="M1115 634 c9 -9 18 -14 21 -11 9 9 -6 27 -22 27 -13 0 -13 -2 1 -16z"/>
<path d="M1200 643 c8 -3 18 -11 22 -17 5 -7 8 -4 8 7 0 11 -7 17 -22 16 -16
0 -18 -2 -8 -6z"/>
<path d="M1251 633 c0 -11 3 -13 6 -5 2 6 9 12 15 12 6 0 8 -7 4 -15 -3 -8 -1
-15 3 -15 11 0 22 26 14 34 -14 13 -43 5 -42 -11z"/>
<path d="M1362 643 c9 -2 19 -12 21 -21 3 -12 5 -10 6 6 1 17 -4 22 -21 21
-16 -1 -18 -3 -6 -6z"/>
<path d="M1477 631 c-3 -12 -1 -21 3 -21 15 0 23 21 12 32 -6 6 -11 2 -15 -11z"/>
<path d="M1521 623 l1 -28 8 25 c7 21 8 22 9 5 1 -17 3 -17 11 -5 15 23 12 30
-10 30 -15 0 -20 -6 -19 -27z"/>
</g>
</svg>
